<svg xmlns="http://www.w3.org/2000/svg" xmlns:xlink="http://www.w3.org/1999/xlink" width="36.1" height="29.23" viewBox="0 0 36.1 29.23">
  <defs>
    <style>
      .cls-1 {
        fill: none;
      }

      .cls-2 {
        clip-path: url(#clip-path);
      }

      .cls-3 {
        fill: #fff;
      }
    </style>
    <clipPath id="clip-path">
      <rect id="Rectangle_1185" data-name="Rectangle 1185" class="cls-1" width="36.1" height="29.23"/>
    </clipPath>
  </defs>
  <g id="cloudy-moon" transform="translate(18.05 14.615)">
    <g id="cloudy-moon-2" data-name="cloudy-moon" class="cls-2" transform="translate(-18.05 -14.615)">
      <path id="Path_886" data-name="Path 886" class="cls-3" d="M17.1,12.3c.1-2.6,3.2-5.1,6.9-5.1a8.1,8.1,0,0,1,7.8,5.9,6.3,6.3,0,0,1,4.4,5.8,6.5,6.5,0,0,1-6.7,6.2V23a4.3,4.3,0,0,0,4.6-4c0-2.5-2-3.6-4.1-4.1-.6-3.1-2.5-5.5-5.9-5.5s-5.3,2.5-5.9,5.6H16.6a3.8,3.8,0,0,0-3.2-1.7A3.7,3.7,0,0,0,10.3,15a10.3,10.3,0,0,1-.9-2.2,5.8,5.8,0,0,1,7.6-.3" transform="translate(0 0)"/>
      <path id="Path_887" data-name="Path 887" class="cls-3" d="M10.3.1c1.3-.4,2.1.8,1.1,1.8a11.3,11.3,0,0,0,16,15.9c1-1,2.2-.2,1.8,1.1A14.9,14.9,0,1,1,10.3.1m-3,4A12.8,12.8,0,1,0,25.2,22,13.4,13.4,0,0,1,7.3,4.1" transform="translate(0 0)"/>
    </g>
  </g>
</svg>
