<svg xmlns="http://www.w3.org/2000/svg" width="15.979" height="24.732" viewBox="0 0 15.979 24.732">
  <defs>
    <style>
      .cls-1 {
        fill: #fff;
      }
    </style>
  </defs>
  <path id="location" class="cls-1" d="M-423.782,24.732v0l-7.537-14.669a11.691,11.691,0,0,1-.607-2.576A7.1,7.1,0,0,1-431,2.673C-429.781.9-427.486,0-424.177,0c.131,0,.261,0,.395,0,3.521.073,5.879,1.042,7.008,2.879a6.62,6.62,0,0,1,.573,4.7,11.478,11.478,0,0,1-.8,2.474l-6.784,14.669ZM-424,4.552a3.426,3.426,0,0,0-3.43,3.415A3.426,3.426,0,0,0-424,11.38a3.425,3.425,0,0,0,3.429-3.414A3.426,3.426,0,0,0-424,4.552Z" transform="translate(431.999 0)"/>
</svg>
