<svg xmlns="http://www.w3.org/2000/svg" xmlns:xlink="http://www.w3.org/1999/xlink" width="48.505" height="44.027" viewBox="0 0 48.505 44.027">
  <defs>
    <style>
      .cls-1 {
        fill: none;
      }

      .cls-2 {
        fill: #8dd4e5;
      }

      .cls-3 {
        clip-path: url(#clip-path);
      }

      .cls-4 {
        fill: url(#linear-gradient);
      }

      .cls-5 {
        clip-path: url(#clip-path-2);
      }

      .cls-6 {
        fill: url(#linear-gradient-2);
      }

      .cls-7 {
        clip-path: url(#clip-path-3);
      }

      .cls-8 {
        fill: url(#linear-gradient-3);
      }

      .cls-9 {
        clip-path: url(#clip-path-4);
      }

      .cls-10 {
        fill: #e5e5e5;
      }
    </style>
    <clipPath id="clip-path">
      <path id="Path_923" data-name="Path 923" class="cls-1" d="M29.3,0C23.5,0,18.6,4,18.2,8.6A8.8,8.8,0,0,0,3.6,16.9a5.7,5.7,0,0,0,2,11H38.2c5.6,0,10.3-4.1,10.3-9.4a9.5,9.5,0,0,0-7-9A12.4,12.4,0,0,0,29.3,0Z" transform="translate(0.005 0.001)"/>
    </clipPath>
    <linearGradient id="linear-gradient" y1="1.577" x2="0.021" y2="1.577" gradientUnits="objectBoundingBox">
      <stop offset="0" stop-color="#e5e5e5"/>
      <stop offset="1" stop-color="#ccc"/>
    </linearGradient>
    <clipPath id="clip-path-2">
      <path id="Path_924" data-name="Path 924" class="cls-1" d="M23.3,2.6a10.8,10.8,0,1,1-2.5,17.2l-1.1-1.3A11.3,11.3,0,1,0,23.3,2.6" transform="translate(-19.7 -0.977)"/>
    </clipPath>
    <linearGradient id="linear-gradient-2" x1="-0.891" y1="1.787" x2="-0.845" y2="1.787" gradientUnits="objectBoundingBox">
      <stop offset="0" stop-color="#e5e5e5"/>
      <stop offset="1" stop-color="#fff"/>
    </linearGradient>
    <clipPath id="clip-path-3">
      <path id="Path_925" data-name="Path 925" class="cls-1" d="M6.1,10.4A7.7,7.7,0,1,0,18.2,10a7.4,7.4,0,1,1-11.8.1l.8-.9L6.1,10.4" transform="translate(-4.607 -9.2)"/>
    </clipPath>
    <linearGradient id="linear-gradient-3" x1="-0.211" y1="2.403" x2="-0.152" y2="2.403" xlink:href="#linear-gradient-2"/>
    <clipPath id="clip-path-4">
      <rect id="Rectangle_1229" data-name="Rectangle 1229" class="cls-1" width="48.4" height="43.99"/>
    </clipPath>
  </defs>
  <g id="rainy-cloud" transform="translate(24.252 22.013)">
    <g id="rainy-cloud-2" data-name="rainy-cloud" transform="translate(-24.252 -22.013)">
      <rect id="Rectangle_1218" data-name="Rectangle 1218" class="cls-2" width="1.8" height="4.8" transform="translate(20.406 33.172) rotate(-45)"/>
      <rect id="Rectangle_1219" data-name="Rectangle 1219" class="cls-2" width="1.8" height="4" transform="translate(33.431 30.836) rotate(-45)"/>
      <rect id="Rectangle_1220" data-name="Rectangle 1220" class="cls-2" width="1.8" height="5.86" transform="translate(29.82 39.526) rotate(-45)"/>
      <rect id="Rectangle_1221" data-name="Rectangle 1221" class="cls-2" width="1.8" height="4.58" transform="translate(12.966 32.239) rotate(-45)"/>
      <rect id="Rectangle_1222" data-name="Rectangle 1222" class="cls-2" width="1.8" height="5.86" transform="translate(39.883 32.605) rotate(-45)"/>
      <rect id="Rectangle_1223" data-name="Rectangle 1223" class="cls-2" width="1.8" height="3.77" transform="translate(15.189 38.974) rotate(-45)"/>
      <rect id="Rectangle_1224" data-name="Rectangle 1224" class="cls-2" width="1.8" height="2.97" transform="translate(23.779 41.927) rotate(-45)"/>
      <g id="Group_951" data-name="Group 951" class="cls-3">
        <rect id="Rectangle_1225" data-name="Rectangle 1225" class="cls-4" width="48.4" height="27.89" transform="translate(0.005 0.001)"/>
      </g>
      <g id="Group_952" data-name="Group 952" class="cls-5" transform="translate(19.705 0.977)">
        <rect id="Rectangle_1226" data-name="Rectangle 1226" class="cls-6" width="22" height="24.37" transform="translate(-0.1 -0.577)"/>
      </g>
      <g id="Group_953" data-name="Group 953" class="cls-7" transform="translate(4.612 9.201)">
        <rect id="Rectangle_1227" data-name="Rectangle 1227" class="cls-8" width="17.1" height="14.48" transform="translate(-1.007 0)"/>
      </g>
      <g id="Group_954" data-name="Group 954" class="cls-9" transform="translate(0.005 0.001)">
        <path id="Path_926" data-name="Path 926" class="cls-10" d="M10.1,6.5l2.2-.3a8.8,8.8,0,0,1,6,2.3V8.2c.6-4.4,5.4-8.2,11-8.2A12.4,12.4,0,0,1,41.4,9.5a9.5,9.5,0,0,1,7,9,8.8,8.8,0,0,1-1.1,4.2,8.8,8.8,0,0,0,.4-2.2,9.5,9.5,0,0,0-6.6-9.3A12.4,12.4,0,0,0,29.6,1C24.2.7,19.4,4,18.3,8.2V9a8.8,8.8,0,0,0-5.9-2.7l-2.2.2" transform="translate(0)"/>
        <rect id="Rectangle_1228" data-name="Rectangle 1228" class="cls-2" width="2.2" height="7.54" transform="translate(26.035 30.371) rotate(-45)"/>
      </g>
    </g>
  </g>
</svg>
