<svg xmlns="http://www.w3.org/2000/svg" xmlns:xlink="http://www.w3.org/1999/xlink" width="48.4" height="43.42" viewBox="0 0 48.4 43.42">
  <defs>
    <style>
      .cls-1 {
        fill: none;
      }

      .cls-2 {
        clip-path: url(#clip-path);
      }

      .cls-3, .cls-4 {
        fill: #fff;
      }

      .cls-4 {
        fill-rule: evenodd;
      }
    </style>
    <clipPath id="clip-path">
      <rect id="Rectangle_1197" data-name="Rectangle 1197" class="cls-1" width="48.4" height="43.42"/>
    </clipPath>
  </defs>
  <g id="snow" transform="translate(24.2 21.71)">
    <g id="snow-2" data-name="snow" class="cls-2" transform="translate(-24.2 -21.71)">
      <path id="Path_891" data-name="Path 891" class="cls-3" d="M18.2,8.6C18.6,4,23.5,0,29.3,0A12.4,12.4,0,0,1,41.4,9.5a9.5,9.5,0,0,1,7,9c0,5.3-4.7,9.4-10.3,9.4H26.7L33,34.2l-1.5,1.5-9.9-9.9H38.2c4.6,0,8.1-3.3,8.1-7.3s-3.2-6.4-6.7-7.2c-.9-5.2-4.7-9.1-10.2-9.1s-9.2,3.9-10.2,9H17.7a6.7,6.7,0,0,0-5.5-2.8A6.6,6.6,0,0,0,5.6,15a9.6,9.6,0,0,0,.9,3.5c-2.1.3-4.3,1-4.3,3.7a3.5,3.5,0,0,0,3.5,3.5h8.7v2.2H5.7a5.7,5.7,0,0,1-2-11A8.8,8.8,0,0,1,18.2,8.6" transform="translate(0 0)"/>
      <path id="Path_892" data-name="Path 892" class="cls-4" d="M14.1,33.1a1.2,1.2,0,1,1,1.2,1.2,1.2,1.2,0,0,1-1.2-1.2" transform="translate(0 0)"/>
      <path id="Path_893" data-name="Path 893" class="cls-4" d="M16.1,39.6a1.2,1.2,0,1,1,1.2,1.2,1.2,1.2,0,0,1-1.2-1.2" transform="translate(0 0)"/>
      <path id="Path_894" data-name="Path 894" class="cls-4" d="M21.6,33.9a1.2,1.2,0,1,1,1.2,1.2,1.2,1.2,0,0,1-1.2-1.2" transform="translate(0 0)"/>
      <path id="Path_895" data-name="Path 895" class="cls-4" d="M24,42.2a1.2,1.2,0,1,1,1.2,1.2A1.2,1.2,0,0,1,24,42.2" transform="translate(0 0)"/>
      <path id="Path_896" data-name="Path 896" class="cls-4" d="M31.3,40.9a1.2,1.2,0,1,1,1.2,1.2,1.2,1.2,0,0,1-1.2-1.2" transform="translate(0 0)"/>
      <path id="Path_897" data-name="Path 897" class="cls-4" d="M38.7,41.1a1.251,1.251,0,1,0,.1,0" transform="translate(0 0)"/>
      <path id="Path_898" data-name="Path 898" class="cls-4" d="M41.2,33.6a1.2,1.2,0,1,1,1.2,1.2,1.2,1.2,0,0,1-1.2-1.2" transform="translate(0 0)"/>
      <path id="Path_899" data-name="Path 899" class="cls-4" d="M34.2,31.5a1.2,1.2,0,1,1,1.2,1.2,1.2,1.2,0,0,1-1.2-1.2" transform="translate(0 0)"/>
    </g>
  </g>
</svg>
