<svg xmlns="http://www.w3.org/2000/svg" width="36.9" height="35.2" viewBox="0 0 36.9 35.2">
  <defs>
    <style>
      .cls-1 {
        fill: #fff;
      }
    </style>
  </defs>
  <g id="snow" transform="translate(18.45 17.6)">
    <path id="snow-2" data-name="snow" class="cls-1" d="M19.1,20.8V18.4l2.8,1,2.5,6.2-.3.2ZM11.9,25l3-6.1,2.6-.7V21l-5.2,4.3Zm7.8-8.3,1.8-2.3,6.9-.5v.4l-6.3,3.3ZM8.6,13.6v-.4l6.6.9L17,16.6l-2.4.7Zm8.4-.1,1.7-6.9H19l1.2,6.8-1.8,2.4ZM11,0,9.9,4.4,5.4,3.8,5.2,5.5l4.9.7,1.3,2L6.5,7.5,6.3,9.2l6.4.9,1.4,2.2-7-1-.2,1.5L6.1,14l6.2,3.9-2.6.7L4.1,15.1l-.9,1.5,4.3,2.7L5.1,20,.9,17.3,0,18.8l3.9,2.4-2,4.1,1.6.7,2.1-4.4L7.9,21,5.7,25.5l1.6.7,2.8-5.8,2.5-.7L9.5,26.1l1.2.5L12,27.8l5.4-4.5v2.6l-5,4.2,1.2,1.2,3.7-3.1v2.4l-3.8,3.2L14.7,35l3.4-2.9,3.3,3.1L22.6,34,19,30.6V28.2l3.7,3.5,1.2-1.2L19,25.9V23.2l5.3,5.1,1-1.1,1.4-.6L24.1,20l2.4.8,2.4,5.8h.7l1-.4-1.9-4.6,2.2.8,2,4.6,1.6-.6-1.7-4.2L36.9,20l-1-1.4-4.3,2.3L29.3,20l4.6-2.4-1-1.4L27,19.3l-2.5-.9,6.6-3.5-.8-1.1V12.1l-7.2.5,1.6-2.1,6.6-.5V8.3l-5,.4,1.5-1.9,4.9-.3V4.7L27.9,5,27.1.5,25.4.8l.9,4.9L24.7,7.6l-.9-4.9L22.2,3l1.1,6.5-1.6,2.1L20.4,4.4,19,4.6l-1.6-.3-1.8,7.1L14.2,9.2l1.6-6.5-1.7-.4L12.9,7.2l-1.3-2L12.8.4Z" transform="translate(-18.45 -17.6)"/>
  </g>
</svg>
