<svg xmlns="http://www.w3.org/2000/svg" xmlns:xlink="http://www.w3.org/1999/xlink" width="48.505" height="42.351" viewBox="0 0 48.505 42.351">
  <defs>
    <style>
      .cls-1 {
        fill: none;
      }

      .cls-2 {
        fill: #d9f1f6;
      }

      .cls-3 {
        clip-path: url(#clip-path);
      }

      .cls-4 {
        fill: url(#linear-gradient);
      }

      .cls-5 {
        clip-path: url(#clip-path-2);
      }

      .cls-6 {
        fill: url(#linear-gradient-2);
      }

      .cls-7 {
        clip-path: url(#clip-path-3);
      }

      .cls-8 {
        fill: url(#linear-gradient-3);
      }

      .cls-9 {
        clip-path: url(#clip-path-4);
      }

      .cls-10 {
        fill: #e5e5e5;
      }
    </style>
    <clipPath id="clip-path">
      <path id="Path_932" data-name="Path 932" class="cls-1" d="M29.3,0C23.5,0,18.6,4,18.2,8.6A8.8,8.8,0,0,0,3.6,16.9a5.7,5.7,0,0,0,2,11H38.2c5.6,0,10.3-4.1,10.3-9.4a9.5,9.5,0,0,0-7-9A12.4,12.4,0,0,0,29.3,0Z" transform="translate(0.005 0.001)"/>
    </clipPath>
    <linearGradient id="linear-gradient" y1="1.518" x2="0.021" y2="1.518" gradientUnits="objectBoundingBox">
      <stop offset="0" stop-color="#e5e5e5"/>
      <stop offset="1" stop-color="#ccc"/>
    </linearGradient>
    <clipPath id="clip-path-2">
      <path id="Path_933" data-name="Path 933" class="cls-1" d="M23.3,2.6a10.8,10.8,0,1,1-2.5,17.2l-1.1-1.3a11.2,11.2,0,0,0,1.5,1.9A11.3,11.3,0,1,0,23.3,2.6" transform="translate(-19.7 -1.005)"/>
    </clipPath>
    <linearGradient id="linear-gradient-2" x1="-0.891" y1="1.72" x2="-0.845" y2="1.72" gradientUnits="objectBoundingBox">
      <stop offset="0" stop-color="#e5e5e5"/>
      <stop offset="1" stop-color="#fff"/>
    </linearGradient>
    <clipPath id="clip-path-3">
      <path id="Path_934" data-name="Path 934" class="cls-1" d="M6.1,10.4A7.7,7.7,0,1,0,18.2,10a7.4,7.4,0,1,1-11.8.1l.8-.9L6.1,10.4" transform="translate(-4.607 -9.2)"/>
    </clipPath>
    <linearGradient id="linear-gradient-3" x1="-0.211" y1="2.29" x2="-0.152" y2="2.29" xlink:href="#linear-gradient-2"/>
    <clipPath id="clip-path-4">
      <rect id="Rectangle_1245" data-name="Rectangle 1245" class="cls-1" width="48.4" height="42.35"/>
    </clipPath>
  </defs>
  <g id="snow-cloud-c" transform="translate(24.252 21.175)">
    <g id="snow-cloud-c-2" data-name="snow-cloud-c" transform="translate(-24.252 -21.175)">
      <rect id="Rectangle_1235" data-name="Rectangle 1235" class="cls-2" width="2.1" height="2.11" transform="translate(16.105 38.801)"/>
      <rect id="Rectangle_1236" data-name="Rectangle 1236" class="cls-2" width="2.1" height="2.11" transform="translate(21.605 33.101)"/>
      <rect id="Rectangle_1237" data-name="Rectangle 1237" class="cls-2" width="2.1" height="2.11" transform="translate(31.305 40.101)"/>
      <rect id="Rectangle_1238" data-name="Rectangle 1238" class="cls-2" width="2.1" height="2.11" transform="translate(34.205 30.701)"/>
      <rect id="Rectangle_1239" data-name="Rectangle 1239" class="cls-2" width="2.1" height="2.11" transform="translate(41.205 32.801)"/>
      <rect id="Rectangle_1240" data-name="Rectangle 1240" class="cls-2" width="2.1" height="2.11" transform="translate(38.705 40.201)"/>
      <g id="Group_960" data-name="Group 960" class="cls-3">
        <rect id="Rectangle_1241" data-name="Rectangle 1241" class="cls-4" width="48.4" height="27.89" transform="translate(0.005 0.001)"/>
      </g>
      <g id="Group_961" data-name="Group 961" class="cls-5" transform="translate(19.705 1.006)">
        <rect id="Rectangle_1242" data-name="Rectangle 1242" class="cls-6" width="22" height="24.37" transform="translate(-0.1 -0.605)"/>
      </g>
      <g id="Group_962" data-name="Group 962" class="cls-7" transform="translate(4.612 9.201)">
        <rect id="Rectangle_1243" data-name="Rectangle 1243" class="cls-8" width="17.1" height="14.48" transform="translate(-1.007 0)"/>
      </g>
      <g id="Group_963" data-name="Group 963" class="cls-9" transform="translate(0.005 0.001)">
        <path id="Path_935" data-name="Path 935" class="cls-10" d="M10.1,6.5l2.2-.3a8.8,8.8,0,0,1,6,2.3V8.2c.6-4.4,5.4-8.2,11-8.2A12.4,12.4,0,0,1,41.4,9.5a9.5,9.5,0,0,1,7,9,8.8,8.8,0,0,1-1.1,4.2,8.8,8.8,0,0,0,.4-2.2,9.5,9.5,0,0,0-6.6-9.3A12.4,12.4,0,0,0,29.6,1C24.2.7,19.4,4,18.3,8.2V9a8.8,8.8,0,0,0-5.9-2.7l-2.2.2"/>
        <rect id="Rectangle_1244" data-name="Rectangle 1244" class="cls-2" width="2.1" height="2.11" transform="translate(29.2 34.7)"/>
      </g>
    </g>
  </g>
</svg>
