<svg xmlns="http://www.w3.org/2000/svg" xmlns:xlink="http://www.w3.org/1999/xlink" width="48.4" height="43.99" viewBox="0 0 48.4 43.99">
  <defs>
    <style>
      .cls-1 {
        fill: none;
      }

      .cls-2 {
        clip-path: url(#clip-path);
      }

      .cls-3 {
        fill: #fff;
      }
    </style>
    <clipPath id="clip-path">
      <rect id="Rectangle_1215" data-name="Rectangle 1215" class="cls-1" width="48.4" height="43.99"/>
    </clipPath>
  </defs>
  <g id="storm-with-rain" transform="translate(24.2 21.995)">
    <g id="storm-with-rain-2" data-name="storm-with-rain" class="cls-2" transform="translate(-24.2 -21.995)">
      <path id="Path_912" data-name="Path 912" class="cls-3" d="M18.2,8.6C18.6,4,23.5,0,29.3,0A12.4,12.4,0,0,1,41.4,9.5a9.5,9.5,0,0,1,7,9c0,5.3-4.7,9.4-10.3,9.4H26.7L33,34.2l-1.5,1.5-9.9-9.9H38.2c4.6,0,8.1-3.3,8.1-7.3s-3.2-6.4-6.7-7.2c-.9-5.2-4.7-9.1-10.2-9.1s-9.2,3.9-10.2,9H17.7a6.7,6.7,0,0,0-5.5-2.8A6.6,6.6,0,0,0,5.6,15a9.6,9.6,0,0,0,.9,3.5c-2.1.3-4.3,1-4.3,3.7a3.5,3.5,0,0,0,3.5,3.5h8.7v2.2H5.7a5.7,5.7,0,0,1-2-11A8.8,8.8,0,0,1,18.2,8.6" transform="translate(0 0)"/>
      <rect id="Rectangle_1208" data-name="Rectangle 1208" class="cls-3" width="1.8" height="4.8" transform="translate(20.401 33.171) rotate(-45)"/>
      <rect id="Rectangle_1209" data-name="Rectangle 1209" class="cls-3" width="1.8" height="4" transform="translate(33.426 30.835) rotate(-45)"/>
      <rect id="Rectangle_1210" data-name="Rectangle 1210" class="cls-3" width="1.8" height="5.86" transform="translate(29.815 39.526) rotate(-45)"/>
      <rect id="Rectangle_1211" data-name="Rectangle 1211" class="cls-3" width="1.8" height="4.58" transform="translate(12.961 32.238) rotate(-45)"/>
      <rect id="Rectangle_1212" data-name="Rectangle 1212" class="cls-3" width="1.8" height="5.86" transform="translate(39.878 32.605) rotate(-45)"/>
      <rect id="Rectangle_1213" data-name="Rectangle 1213" class="cls-3" width="1.8" height="3.77" transform="translate(15.184 38.974) rotate(-45)"/>
      <rect id="Rectangle_1214" data-name="Rectangle 1214" class="cls-3" width="1.8" height="2.97" transform="translate(23.774 41.926) rotate(-45)"/>
    </g>
  </g>
</svg>
