<svg xmlns="http://www.w3.org/2000/svg" xmlns:xlink="http://www.w3.org/1999/xlink" width="48.505" height="50.901" viewBox="0 0 48.505 50.901">
  <defs>
    <style>
      .cls-1 {
        fill: none;
      }

      .cls-2 {
        clip-path: url(#clip-path);
      }

      .cls-3 {
        fill: url(#linear-gradient);
      }

      .cls-4 {
        clip-path: url(#clip-path-2);
      }

      .cls-5 {
        fill: url(#linear-gradient-2);
      }

      .cls-6 {
        clip-path: url(#clip-path-3);
      }

      .cls-7 {
        fill: url(#linear-gradient-3);
      }

      .cls-8 {
        clip-path: url(#clip-path-4);
      }

      .cls-9 {
        fill: #e5e5e5;
      }

      .cls-10 {
        clip-path: url(#clip-path-5);
      }

      .cls-11 {
        fill: url(#radial-gradient);
      }

      .cls-12 {
        fill: #8dd4e5;
      }
    </style>
    <clipPath id="clip-path">
      <path id="Path_936" data-name="Path 936" class="cls-1" d="M29.3,0C23.5,0,18.6,4,18.2,8.6A8.8,8.8,0,0,0,3.4,15a8.9,8.9,0,0,0,.2,1.9,5.7,5.7,0,0,0,2,11H38.2c5.6,0,10.3-4.1,10.3-9.4a9.5,9.5,0,0,0-7-9A12.4,12.4,0,0,0,29.3,0Z" transform="translate(0.005 0.001)"/>
    </clipPath>
    <linearGradient id="linear-gradient" y1="1.825" x2="0.021" y2="1.825" gradientUnits="objectBoundingBox">
      <stop offset="0" stop-color="#b3b3b3"/>
      <stop offset="1" stop-color="#ccc"/>
    </linearGradient>
    <clipPath id="clip-path-2">
      <path id="Path_937" data-name="Path 937" class="cls-1" d="M23.3,2.6a10.8,10.8,0,1,1-2.5,17.2l-1.1-1.3A11.3,11.3,0,1,0,23.3,2.6" transform="translate(-19.7 -0.977)"/>
    </clipPath>
    <linearGradient id="linear-gradient-2" x1="-0.891" y1="2.071" x2="-0.845" y2="2.071" gradientUnits="objectBoundingBox">
      <stop offset="0" stop-color="#b3b3b3"/>
      <stop offset="1" stop-color="#fff"/>
    </linearGradient>
    <clipPath id="clip-path-3">
      <path id="Path_938" data-name="Path 938" class="cls-1" d="M6.1,10.4A7.7,7.7,0,1,0,18.2,10a7.4,7.4,0,1,1-11.8.1l.8-.9L6.1,10.4" transform="translate(-4.607 -9.2)"/>
    </clipPath>
    <linearGradient id="linear-gradient-3" x1="-0.211" y1="2.881" x2="-0.152" y2="2.881" xlink:href="#linear-gradient-2"/>
    <clipPath id="clip-path-4">
      <rect id="Rectangle_1249" data-name="Rectangle 1249" class="cls-1" width="48.4" height="50.9"/>
    </clipPath>
    <clipPath id="clip-path-5">
      <path id="Path_940" data-name="Path 940" class="cls-1" d="M24.6,28.9l5,4.9H20.3L38.7,50.9,25.6,36h9.2l-7.1-7.1Z" transform="translate(-20.3 -28.9)"/>
    </clipPath>
    <radialGradient id="radial-gradient" cx="0.801" cy="0.493" r="0.5" gradientTransform="matrix(1.198, 0, 0, -1, 0.213, 1.997)" gradientUnits="objectBoundingBox">
      <stop offset="0" stop-color="#febf2d"/>
      <stop offset="1" stop-color="#fed947"/>
    </radialGradient>
  </defs>
  <g id="storm-with-rain-c" transform="translate(24.252 25.45)">
    <g id="storm-with-rain-c-2" data-name="storm-with-rain-c" transform="translate(-24.252 -25.45)">
      <g id="Group_964" data-name="Group 964" class="cls-2">
        <rect id="Rectangle_1246" data-name="Rectangle 1246" class="cls-3" width="48.4" height="27.89" transform="translate(0.005 0.001)"/>
      </g>
      <g id="Group_965" data-name="Group 965" class="cls-4" transform="translate(19.705 0.977)">
        <rect id="Rectangle_1247" data-name="Rectangle 1247" class="cls-5" width="22" height="24.38" transform="translate(-0.1 -0.577)"/>
      </g>
      <g id="Group_966" data-name="Group 966" class="cls-6" transform="translate(4.612 9.201)">
        <rect id="Rectangle_1248" data-name="Rectangle 1248" class="cls-7" width="17.1" height="14.48" transform="translate(-1.007 0)"/>
      </g>
      <g id="Group_967" data-name="Group 967" class="cls-8" transform="translate(0.005 0.001)">
        <path id="Path_939" data-name="Path 939" class="cls-9" d="M10.1,6.5l2.2-.3a8.8,8.8,0,0,1,6,2.3V8.2c.6-4.4,5.4-8.2,11-8.2A12.4,12.4,0,0,1,41.4,9.5a9.5,9.5,0,0,1,7,9,8.8,8.8,0,0,1-1.1,4.2,8.8,8.8,0,0,0,.4-2.2,9.5,9.5,0,0,0-6.6-9.3A12.4,12.4,0,0,0,29.6,1C24.2.7,19.4,4,18.3,8.2V9a8.8,8.8,0,0,0-5.9-2.7l-2.2.2"/>
      </g>
      <g id="Group_968" data-name="Group 968" class="cls-10" transform="translate(20.305 28.901)">
        <rect id="Rectangle_1250" data-name="Rectangle 1250" class="cls-11" width="18.4" height="22.04"/>
      </g>
      <g id="Group_969" data-name="Group 969" class="cls-8" transform="translate(0.005 0.001)">
        <rect id="Rectangle_1251" data-name="Rectangle 1251" class="cls-12" width="1.8" height="4" transform="translate(34.333 30.828) rotate(-45)"/>
        <rect id="Rectangle_1252" data-name="Rectangle 1252" class="cls-12" width="1.8" height="4.58" transform="translate(12.266 32.233) rotate(-45)"/>
        <rect id="Rectangle_1253" data-name="Rectangle 1253" class="cls-12" width="1.8" height="5.86" transform="translate(40.814 32.568) rotate(-45)"/>
        <rect id="Rectangle_1254" data-name="Rectangle 1254" class="cls-12" width="1.8" height="3.77" transform="translate(12.233 39.024) rotate(-45)"/>
        <rect id="Rectangle_1255" data-name="Rectangle 1255" class="cls-12" width="1.8" height="2.97" transform="translate(21.572 42.294) rotate(-45)"/>
        <rect id="Rectangle_1256" data-name="Rectangle 1256" class="cls-12" width="1.8" height="2.97" transform="translate(35.15 39.638) rotate(-45)"/>
      </g>
    </g>
  </g>
</svg>
