<svg xmlns="http://www.w3.org/2000/svg" xmlns:xlink="http://www.w3.org/1999/xlink" width="48.6" height="43.76" viewBox="0 0 48.6 43.76">
  <defs>
    <style>
      .cls-1 {
        fill: none;
      }

      .cls-2 {
        clip-path: url(#clip-path);
      }

      .cls-3 {
        fill: #fff;
      }
    </style>
    <clipPath id="clip-path">
      <rect id="Rectangle_1217" data-name="Rectangle 1217" class="cls-1" width="48.6" height="43.76"/>
    </clipPath>
  </defs>
  <g id="sun-cloudy" transform="translate(24.3 21.88)">
    <g id="sun-cloudy-2" data-name="sun-cloudy" class="cls-2" transform="translate(-24.3 -21.88)">
      <path id="Path_917" data-name="Path 917" class="cls-3" d="M21.9,9.1A12.8,12.8,0,0,0,17.6,34a4.4,4.4,0,0,0,2,2.7A15,15,0,1,1,36.5,18.4h-.1l-2.1.3A12.8,12.8,0,0,0,21.9,9.1" transform="translate(0 0)"/>
      <path id="Path_918" data-name="Path 918" class="cls-3" d="M23,37.7v6.1H20.8V37.7H23M23,0V6.1H20.8V0Z" transform="translate(0)"/>
      <path id="Path_919" data-name="Path 919" class="cls-3" d="M6.1,23H0V20.8H6.1V23" transform="translate(0 0)"/>
      <path id="Path_920" data-name="Path 920" class="cls-3" d="M9.9,11.5,5.6,7.2,7.2,5.6l4.3,4.3L9.9,11.5" transform="translate(0 0)"/>
      <path id="Path_921" data-name="Path 921" class="cls-3" d="M11.5,33.8,7.2,38.1,5.6,36.6l4.3-4.3,1.5,1.5M38.1,7.2l-4.3,4.3L32.3,9.9l4.3-4.3Z" transform="translate(0 0)"/>
      <path id="Path_922" data-name="Path 922" class="cls-3" d="M41.8,34.7a4.3,4.3,0,0,0,4.6-4c0-2.5-2-3.6-4.1-4.1-.6-3.1-2.5-5.5-5.9-5.5s-5.3,2.5-5.9,5.6H29.1A3.8,3.8,0,0,0,25.9,25a3.7,3.7,0,0,0-3.7,3.7,7.3,7.3,0,0,0,.7,2.5c-1.2.2-2.8.3-2.8,1.9a1.7,1.7,0,0,0,1.7,1.7ZM29.6,24c.1-2.6,3.2-5.1,6.9-5.1a8.1,8.1,0,0,1,7.8,5.9,6.3,6.3,0,0,1,4.4,5.8A6.5,6.5,0,0,1,42,36.8H22a3.9,3.9,0,0,1-1.7-7.4,6,6,0,0,1-.1-.9A5.8,5.8,0,0,1,29.6,24" transform="translate(0 0)"/>
    </g>
  </g>
</svg>
