<svg xmlns="http://www.w3.org/2000/svg" xmlns:xlink="http://www.w3.org/1999/xlink" width="43.8" height="43.76" viewBox="0 0 43.8 43.76">
  <defs>
    <style>
      .cls-1 {
        fill: none;
      }

      .cls-2 {
        clip-path: url(#clip-path);
      }

      .cls-3 {
        fill: #fff;
      }
    </style>
    <clipPath id="clip-path">
      <rect id="Rectangle_1206" data-name="Rectangle 1206" class="cls-1" width="43.8" height="43.76"/>
    </clipPath>
  </defs>
  <g id="sun" transform="translate(21.9 21.88)">
    <g id="sun-2" data-name="sun" class="cls-2" transform="translate(-21.9 -21.88)">
      <path id="Path_902" data-name="Path 902" class="cls-3" d="M21.9,6.9a15,15,0,1,1-15,15,15,15,0,0,1,15-15m0,2.2A12.8,12.8,0,1,0,34.7,21.9,12.8,12.8,0,0,0,21.9,9.1" transform="translate(0 0)"/>
      <path id="Path_903" data-name="Path 903" class="cls-3" d="M23,37.7v6.1H20.8V37.7H23M23,0V6.1H20.8V0Z" transform="translate(0)"/>
      <path id="Path_904" data-name="Path 904" class="cls-3" d="M6.1,23H0V20.8H6.1V23m37.7,0H37.7V20.8h6.1Z" transform="translate(0 0)"/>
      <path id="Path_905" data-name="Path 905" class="cls-3" d="M9.9,11.5,5.6,7.2,7.2,5.6l4.3,4.3L9.9,11.5M36.6,38.1l-4.3-4.3,1.5-1.5,4.3,4.3Z" transform="translate(0 0)"/>
      <path id="Path_906" data-name="Path 906" class="cls-3" d="M11.5,33.8,7.2,38.1,5.6,36.6l4.3-4.3,1.5,1.5M38.1,7.2l-4.3,4.3L32.3,9.9l4.3-4.3Z" transform="translate(0 0)"/>
    </g>
  </g>
</svg>
