<?xml version="1.0" encoding="utf-8"?>
<!-- Generator: Adobe Illustrator 25.0.0, SVG Export Plug-In . SVG Version: 6.00 Build 0)  -->
<svg version="1.1" id="Layer_1" xmlns="http://www.w3.org/2000/svg" xmlns:xlink="http://www.w3.org/1999/xlink" x="0px" y="0px"
	 viewBox="0 0 15.9 25.5" style="enable-background:new 0 0 15.9 25.5;" xml:space="preserve">
<style type="text/css">
	.st0{clip-path:url(#SVGID_2_);}
	.st1{fill:#FFFFFF;}
</style>
<g id="wet" transform="translate(4)">
	<g>
		<defs>
			<rect id="SVGID_1_" x="11.9" y="33" width="29.1" height="25.5"/>
		</defs>
		<clipPath id="SVGID_2_">
			<use xlink:href="#SVGID_1_"  style="overflow:visible;"/>
		</clipPath>
		<g id="drop" transform="translate(-4)" class="st0">
			<path id="Path_366" class="st1" d="M8,25.5c-4.4,0-8-3.6-8-8c0,0,0-0.1,0-0.1C0,13.6,5.7,3.6,8,0c0,0,2.5,4.3,4.4,7.7
				s3.6,7.6,3.6,9.8C15.9,21.9,12.4,25.5,8,25.5 M8,23.7c3.4,0,6.2-2.8,6.2-6.2l0,0c0-2.9-4.4-11-6.2-14C6.2,6.6,1.7,14.6,1.7,17.5
				C1.7,20.9,4.5,23.7,8,23.7L8,23.7"/>
			<path id="Path_367" class="st1" d="M5.8,17.3v0.2c-0.2,0.9,0.4,1.9,1.3,2.1s1.9-0.4,2.1-1.3c0.1-0.2,0.1-0.5,0-0.8
				c-0.4-1.5-1-3-1.7-4.4C6.8,14.6,6.2,16,5.8,17.3"/>
		</g>
	</g>
</g>
</svg>
