<svg xmlns="http://www.w3.org/2000/svg" xmlns:xlink="http://www.w3.org/1999/xlink" width="35.4" height="31.08" viewBox="0 0 35.4 31.08">
  <defs>
    <style>
      .cls-1 {
        fill: none;
      }

      .cls-2 {
        clip-path: url(#clip-path);
      }

      .cls-3 {
        fill: #fff;
      }
    </style>
    <clipPath id="clip-path">
      <rect id="Rectangle_1216" data-name="Rectangle 1216" class="cls-1" width="35.4" height="31.08"/>
    </clipPath>
  </defs>
  <g id="wet" transform="translate(17.7 15.54)">
    <g id="wet-2" data-name="wet" class="cls-2" transform="translate(-17.7 -15.54)">
      <path id="Path_913" data-name="Path 913" class="cls-3" d="M25.7,31.1A9.7,9.7,0,0,1,16,21.3C16,16.6,23,4.4,25.7,0c0,0,3.1,5.2,5.3,9.4s4.4,9.2,4.4,11.9A9.7,9.7,0,0,1,25.7,31m0-2.2a7.6,7.6,0,0,0,7.6-7.6c0-3.5-5.4-13.4-7.6-17.1C23.6,8,18.1,17.8,18.1,21.3a7.6,7.6,0,0,0,7.6,7.6" transform="translate(0)"/>
      <path id="Path_914" data-name="Path 914" class="cls-3" d="M22.1,21.1v.3a2.1,2.1,0,1,0,4.1,0,25.358,25.358,0,0,0-2.1-5.3,25.7,25.7,0,0,0-2,5.1" transform="translate(0 0)"/>
      <path id="Path_915" data-name="Path 915" class="cls-3" d="M6.5,20.9A6.5,6.5,0,0,1,0,14.4C0,11.2,4.8,3,6.5,0c0,0,2,3.4,3.5,6.3s3,6.3,3,8.1a6.5,6.5,0,0,1-6.5,6.5m0-1.2a5.3,5.3,0,0,0,5.3-5.3c0-2.5-3.8-9.4-5.3-12C5,5,1.2,11.9,1.2,14.4a5.3,5.3,0,0,0,5.3,5.3"/>
      <path id="Path_916" data-name="Path 916" class="cls-3" d="M8.2,12.6l.3-.6.4.8.6,1.5.2.5V15a1.15,1.15,0,0,1-2.3,0,15.9,15.9,0,0,1,.9-2.5" transform="translate(0 0)"/>
    </g>
  </g>
</svg>
