<svg xmlns="http://www.w3.org/2000/svg" xmlns:xlink="http://www.w3.org/1999/xlink" width="36.1" height="29.23" viewBox="0 0 36.1 29.23">
  <defs>
    <style>
      .cls-1 {
        fill: none;
      }

      .cls-2 {
        clip-path: url(#clip-path);
      }

      .cls-3 {
        fill: #ffe63d;
      }

      .cls-4 {
        fill: #febf2d;
      }

      .cls-5 {
        fill: #fff;
      }

      .cls-6 {
        clip-path: url(#clip-path-2);
      }

      .cls-7 {
        fill: url(#linear-gradient);
      }

      .cls-8 {
        clip-path: url(#clip-path-3);
      }

      .cls-9 {
        fill: url(#linear-gradient-2);
      }

      .cls-10 {
        fill: #e5e5e5;
      }
    </style>
    <clipPath id="clip-path">
      <rect id="Rectangle_1266" data-name="Rectangle 1266" class="cls-1" width="36.1" height="29.23"/>
    </clipPath>
    <clipPath id="clip-path-2">
      <path id="Path_961" data-name="Path 961" class="cls-1" d="M20.2,12.8A6.7,6.7,0,0,1,28.3,14a7.1,7.1,0,0,1,0,9.9,6.7,6.7,0,0,1-9.7,0l-.7-.9.9,1.2a7,7,0,0,0,10.1,0,7.5,7.5,0,0,0,0-10.4,7,7,0,0,0-8.8-1.1" transform="translate(-17.9 -11.624)"/>
    </clipPath>
    <linearGradient id="linear-gradient" x1="-1.288" y1="1.128" x2="-1.216" y2="1.128" gradientUnits="objectBoundingBox">
      <stop offset="0" stop-color="#e5e5e5"/>
      <stop offset="1" stop-color="#fff"/>
    </linearGradient>
    <clipPath id="clip-path-3">
      <path id="Path_962" data-name="Path 962" class="cls-1" d="M9.3,17.9a5.1,5.1,0,0,0,1.1,7,4.8,4.8,0,0,0,6.8-1.1,5.1,5.1,0,0,0-.2-6.1,4.9,4.9,0,0,1,.1,5.7,4.6,4.6,0,0,1-6.5,1.1,4.8,4.8,0,0,1-1-6.7l.5-.6-.7.8" transform="translate(-8.374 -17.2)"/>
    </clipPath>
    <linearGradient id="linear-gradient-2" x1="-0.713" y1="1.285" x2="-0.62" y2="1.285" xlink:href="#linear-gradient"/>
  </defs>
  <g id="cloudy-moon-c" transform="translate(18.05 14.615)">
    <g id="cloudy-moon-c-2" data-name="cloudy-moon-c" transform="translate(-18.05 -14.615)">
      <g id="Group_978" data-name="Group 978" class="cls-2">
        <path id="Path_958" data-name="Path 958" class="cls-3" d="M10.3.1c1.3-.4,2.1.8,1.1,1.8a11.3,11.3,0,0,0,16,15.9c1-1,2.2-.2,1.8,1.1A14.9,14.9,0,1,1,10.3.1"/>
        <path id="Path_959" data-name="Path 959" class="cls-4" d="M5.2,5.5a12.8,12.8,0,1,0,21,14.1A13.4,13.4,0,0,1,5.2,5.5"/>
        <path id="Path_960" data-name="Path 960" class="cls-5" d="M17,16.7c.3-3,3.3-5.5,7-5.5a7.9,7.9,0,0,1,7.6,6.2A6.2,6.2,0,0,1,36,23.2a6.3,6.3,0,0,1-6.5,6.1H9.1a3.6,3.6,0,0,1-3.6-3.7,3.7,3.7,0,0,1,2.3-3.4A5.9,5.9,0,0,1,7.7,21a5.6,5.6,0,0,1,5.6-5.7A5.5,5.5,0,0,1,17,16.7"/>
      </g>
      <g id="Group_979" data-name="Group 979" class="cls-6" transform="translate(17.9 11.624)">
        <rect id="Rectangle_1267" data-name="Rectangle 1267" class="cls-7" width="13.9" height="15.78" transform="translate(0 -0.224)"/>
      </g>
      <g id="Group_980" data-name="Group 980" class="cls-8" transform="translate(8.374 17.2)">
        <rect id="Rectangle_1268" data-name="Rectangle 1268" class="cls-9" width="10.8" height="9.37" transform="translate(-0.674 0)"/>
      </g>
      <g id="Group_981" data-name="Group 981" class="cls-2">
        <path id="Path_963" data-name="Path 963" class="cls-10" d="M11.9,15.4l1.4-.2A5.5,5.5,0,0,1,17,16.7v-.2c.4-2.9,3.4-5.3,7-5.3a7.9,7.9,0,0,1,7.6,6.2A6.1,6.1,0,0,1,36,23.2a5.8,5.8,0,0,1-.7,2.7,5.8,5.8,0,0,0,.3-1.5,6.2,6.2,0,0,0-4.1-6,7.9,7.9,0,0,0-7.3-6.6c-3.4-.2-6.5,1.9-7.2,4.7V17a5.5,5.5,0,0,0-3.7-1.7H11.9"/>
      </g>
    </g>
  </g>
</svg>
