<svg xmlns="http://www.w3.org/2000/svg" xmlns:xlink="http://www.w3.org/1999/xlink" width="48.505" height="42.131" viewBox="0 0 48.505 42.131">
  <defs>
    <style>
      .cls-1 {
        fill: none;
      }

      .cls-2 {
        clip-path: url(#clip-path);
      }

      .cls-3 {
        fill: #e6f5f9;
        fill-rule: evenodd;
      }

      .cls-4 {
        clip-path: url(#clip-path-2);
      }

      .cls-5 {
        fill: url(#linear-gradient);
      }

      .cls-6 {
        clip-path: url(#clip-path-3);
      }

      .cls-7 {
        fill: url(#linear-gradient-2);
      }

      .cls-8 {
        clip-path: url(#clip-path-4);
      }

      .cls-9 {
        fill: url(#linear-gradient-3);
      }

      .cls-10 {
        fill: #e5e5e5;
      }
    </style>
    <clipPath id="clip-path">
      <rect id="Rectangle_1261" data-name="Rectangle 1261" class="cls-1" width="48.4" height="42.13"/>
    </clipPath>
    <clipPath id="clip-path-2">
      <path id="Path_953" data-name="Path 953" class="cls-1" d="M29.3,0C23.5,0,18.6,4,18.2,8.6A8.8,8.8,0,0,0,3.4,15a8.9,8.9,0,0,0,.2,1.9,5.7,5.7,0,0,0,2,11H38.2c5.6,0,10.3-4.1,10.3-9.4a9.5,9.5,0,0,0-7-9A12.4,12.4,0,0,0,29.3,0Z" transform="translate(0.005 0.001)"/>
    </clipPath>
    <linearGradient id="linear-gradient" y1="1.51" x2="0.021" y2="1.51" gradientUnits="objectBoundingBox">
      <stop offset="0" stop-color="#e5e5e5"/>
      <stop offset="1" stop-color="#ccc"/>
    </linearGradient>
    <clipPath id="clip-path-3">
      <path id="Path_954" data-name="Path 954" class="cls-1" d="M23.3,2.6a10.8,10.8,0,1,1-2.5,17.2l-1.1-1.3A11.3,11.3,0,1,0,23.3,2.6" transform="translate(-19.7 -0.977)"/>
    </clipPath>
    <linearGradient id="linear-gradient-2" x1="-0.891" y1="1.711" x2="-0.845" y2="1.711" gradientUnits="objectBoundingBox">
      <stop offset="0" stop-color="#e5e5e5"/>
      <stop offset="1" stop-color="#fff"/>
    </linearGradient>
    <clipPath id="clip-path-4">
      <path id="Path_955" data-name="Path 955" class="cls-1" d="M6.1,10.4A7.7,7.7,0,1,0,18.2,10a7.4,7.4,0,1,1-11.8.1l.8-.9L6.1,10.4" transform="translate(-4.607 -9.2)"/>
    </clipPath>
    <linearGradient id="linear-gradient-3" x1="-0.211" y1="2.275" x2="-0.152" y2="2.275" xlink:href="#linear-gradient-2"/>
  </defs>
  <g id="ice-rain-c" transform="translate(24.252 21.065)">
    <g id="ice-rain-c-2" data-name="ice-rain-c" transform="translate(-24.252 -21.065)">
      <g id="Group_973" data-name="Group 973" class="cls-2" transform="translate(0.005 0.001)">
        <path id="Path_947" data-name="Path 947" class="cls-3" d="M14.1,33.1a1.2,1.2,0,1,1,1.2,1.2,1.2,1.2,0,0,1-1.2-1.2" transform="translate(0)"/>
        <path id="Path_948" data-name="Path 948" class="cls-3" d="M16.1,39.6a1.2,1.2,0,1,1,1.2,1.2,1.2,1.2,0,0,1-1.2-1.2" transform="translate(0)"/>
        <path id="Path_949" data-name="Path 949" class="cls-3" d="M21.6,33.9a1.2,1.2,0,1,1,1.2,1.2,1.2,1.2,0,0,1-1.2-1.2" transform="translate(0)"/>
        <path id="Path_950" data-name="Path 950" class="cls-3" d="M31.3,40.9a1.2,1.2,0,1,1,1.2,1.2,1.2,1.2,0,0,1-1.2-1.2" transform="translate(0)"/>
        <path id="Path_951" data-name="Path 951" class="cls-3" d="M41.2,33.6a1.2,1.2,0,1,1,1.2,1.2,1.2,1.2,0,0,1-1.2-1.2" transform="translate(0)"/>
        <path id="Path_952" data-name="Path 952" class="cls-3" d="M34.2,31.5a1.2,1.2,0,1,1,1.2,1.2,1.2,1.2,0,0,1-1.2-1.2" transform="translate(0)"/>
      </g>
      <g id="Group_974" data-name="Group 974" class="cls-4">
        <rect id="Rectangle_1262" data-name="Rectangle 1262" class="cls-5" width="48.4" height="27.89" transform="translate(0.005 0.001)"/>
      </g>
      <g id="Group_975" data-name="Group 975" class="cls-6" transform="translate(19.705 0.977)">
        <rect id="Rectangle_1263" data-name="Rectangle 1263" class="cls-7" width="22" height="24.37" transform="translate(-0.1 -0.577)"/>
      </g>
      <g id="Group_976" data-name="Group 976" class="cls-8" transform="translate(4.612 9.201)">
        <rect id="Rectangle_1264" data-name="Rectangle 1264" class="cls-9" width="17.1" height="14.48" transform="translate(-1.007 0)"/>
      </g>
      <g id="Group_977" data-name="Group 977" class="cls-2" transform="translate(0.005 0.001)">
        <path id="Path_956" data-name="Path 956" class="cls-10" d="M10.1,6.5l2.2-.3a8.8,8.8,0,0,1,6,2.3V8.2c.6-4.4,5.4-8.2,11-8.2A12.4,12.4,0,0,1,41.4,9.5a9.5,9.5,0,0,1,7,9,8.8,8.8,0,0,1-1.1,4.2,8.7,8.7,0,0,0,.4-2.2,9.5,9.5,0,0,0-6.6-9.3A12.4,12.4,0,0,0,29.6,1C24.2.7,19.4,4,18.3,8.2V9a8.8,8.8,0,0,0-5.9-2.7l-2.2.2" transform="translate(0)"/>
        <path id="Path_957" data-name="Path 957" class="cls-3" d="M29,35.4a1.2,1.2,0,1,1,1.2,1.2A1.2,1.2,0,0,1,29,35.4" transform="translate(0)"/>
      </g>
    </g>
  </g>
</svg>
