<svg id="mist" xmlns="http://www.w3.org/2000/svg" width="48.305" height="40.4" viewBox="0 0 48.305 40.4">
  <path id="Path_1399" data-name="Path 1399" d="M25.8,19.2c.4-4.6,5.3-8.6,11.1-8.6A12.4,12.4,0,0,1,49,20.1a9.5,9.5,0,0,1,7,9c0,5.3-4.7,9.4-10.3,9.4H13.3a5.7,5.7,0,0,1-2-11,8.8,8.8,0,0,1,14.6-8.3M13.3,36.4H45.8c4.6,0,8.1-3.3,8.1-7.3s-3.2-6.4-6.7-7.2a10.756,10.756,0,0,0-6.641-8.5A9.967,9.967,0,0,0,37,12.8c-5.5,0-9.2,3.9-10.2,9H25.3A6.7,6.7,0,0,0,19.8,19a6.6,6.6,0,0,0-6.6,6.6,9.6,9.6,0,0,0,.9,3.5c-2.1.3-4.3,1-4.3,3.7a3.5,3.5,0,0,0,3.5,3.5" transform="translate(-7.695 -10.6)" fill="#fff"/>
  <rect id="Rectangle_1938" data-name="Rectangle 1938" width="22" height="2" transform="translate(11.305 30.4)" fill="#fff"/>
  <rect id="Rectangle_1939" data-name="Rectangle 1939" width="22" height="2" transform="translate(17.305 34.4)" fill="#fff"/>
  <rect id="Rectangle_1940" data-name="Rectangle 1940" width="22" height="2" transform="translate(11.305 38.4)" fill="#fff"/>
</svg>
