<svg xmlns="http://www.w3.org/2000/svg" xmlns:xlink="http://www.w3.org/1999/xlink" width="48.4" height="50.91" viewBox="0 0 48.4 50.91">
  <defs>
    <style>
      .cls-1 {
        fill: none;
      }

      .cls-2 {
        clip-path: url(#clip-path);
      }

      .cls-3 {
        fill: #fff;
      }
    </style>
    <clipPath id="clip-path">
      <rect id="Rectangle_1204" data-name="Rectangle 1204" class="cls-1" width="48.4" height="50.91"/>
    </clipPath>
  </defs>
  <g id="storm-rainy" transform="translate(24.2 25.455)">
    <g id="storm-rainy-2" data-name="storm-rainy" class="cls-2" transform="translate(-24.2 -25.455)">
      <path id="Path_900" data-name="Path 900" class="cls-3" d="M18.2,8.6C18.6,4,23.5,0,29.3,0A12.4,12.4,0,0,1,41.4,9.5a9.5,9.5,0,0,1,7,9c0,5.3-4.7,9.4-10.3,9.4H26.7L34.8,36H25.6L38.7,50.9,20.3,33.8h9.2l-8.1-8.1H38.2c4.6,0,8.1-3.3,8.1-7.3s-3.2-6.4-6.7-7.2C38.7,6,34.9,2.1,29.4,2.1s-9.2,3.9-10.2,9H17.7a6.7,6.7,0,0,0-5.5-2.8A6.6,6.6,0,0,0,5.6,15a9.6,9.6,0,0,0,.9,3.5c-2.1.3-4.3,1-4.3,3.7a3.5,3.5,0,0,0,3.5,3.5h8.7v2.2H5.7a5.7,5.7,0,0,1-2-11A8.8,8.8,0,0,1,18.2,8.6" transform="translate(0 0)"/>
      <rect id="Rectangle_1198" data-name="Rectangle 1198" class="cls-3" width="1.8" height="4" transform="translate(34.333 30.828) rotate(-45)"/>
      <rect id="Rectangle_1199" data-name="Rectangle 1199" class="cls-3" width="1.8" height="4.58" transform="translate(12.266 32.233) rotate(-45)"/>
      <rect id="Rectangle_1200" data-name="Rectangle 1200" class="cls-3" width="1.8" height="5.86" transform="translate(40.814 32.568) rotate(-45)"/>
      <rect id="Rectangle_1201" data-name="Rectangle 1201" class="cls-3" width="1.8" height="3.77" transform="translate(12.233 39.024) rotate(-45)"/>
      <rect id="Rectangle_1202" data-name="Rectangle 1202" class="cls-3" width="1.8" height="2.97" transform="translate(21.572 42.294) rotate(-45)"/>
      <rect id="Rectangle_1203" data-name="Rectangle 1203" class="cls-3" width="1.8" height="2.97" transform="translate(35.15 39.638) rotate(-45)"/>
    </g>
  </g>
</svg>
