<svg xmlns="http://www.w3.org/2000/svg" xmlns:xlink="http://www.w3.org/1999/xlink" width="56" height="38.52" viewBox="0 0 56 38.52">
  <defs>
    <style>
      .cls-1 {
        fill: none;
      }

      .cls-2 {
        clip-path: url(#clip-path);
      }

      .cls-3 {
        fill: #fff;
      }
    </style>
    <clipPath id="clip-path">
      <rect id="Rectangle_1207" data-name="Rectangle 1207" class="cls-1" width="56" height="38.52"/>
    </clipPath>
  </defs>
  <g id="sun-very-cloudy" transform="translate(28 19.26)">
    <g id="sun-very-cloudy-2" data-name="sun-very-cloudy" class="cls-2" transform="translate(-28 -19.26)">
      <path id="Path_907" data-name="Path 907" class="cls-3" d="M25.8,19.2c.4-4.6,5.3-8.6,11.1-8.6A12.4,12.4,0,0,1,49,20.1a9.5,9.5,0,0,1,7,9c0,5.3-4.7,9.4-10.3,9.4H13.3a5.7,5.7,0,0,1-2-11,8.8,8.8,0,0,1,14.6-8.3M13.3,36.4H45.8c4.6,0,8.1-3.3,8.1-7.3s-3.2-6.4-6.7-7.2c-.9-5.2-4.7-9.1-10.2-9.1s-9.2,3.9-10.2,9H25.3A6.7,6.7,0,0,0,19.8,19a6.6,6.6,0,0,0-6.6,6.6,9.6,9.6,0,0,0,.9,3.5c-2.1.3-4.3,1-4.3,3.7a3.5,3.5,0,0,0,3.5,3.5" transform="translate(0 0)"/>
      <path id="Path_908" data-name="Path 908" class="cls-3" d="M23.4,9.1A12.8,12.8,0,0,0,9.3,24.3a10.7,10.7,0,0,0-.1,1.3v.9L8,27.5A15,15,0,0,1,31.1,10L29,11.2a12.8,12.8,0,0,0-5.6-2.1" transform="translate(0 0)"/>
      <path id="Path_909" data-name="Path 909" class="cls-3" d="M25.6.3l-.7,6-1.1-.2H22.7l.7-6Z" transform="translate(0 0)"/>
      <path id="Path_910" data-name="Path 910" class="cls-3" d="M6,21l-6-.7.3-2.1,6,.7L6.1,20c0,.4-.1.7-.1,1.1" transform="translate(0 0)"/>
      <path id="Path_911" data-name="Path 911" class="cls-3" d="M11.3,10.1,7.5,5.3,9.2,3.9,13,8.7,11.3,10" transform="translate(0 0)"/>
    </g>
  </g>
</svg>
