<svg xmlns="http://www.w3.org/2000/svg" xmlns:xlink="http://www.w3.org/1999/xlink" width="56" height="38.52" viewBox="0 0 56 38.52">
  <defs>
    <style>
      .cls-1 {
        fill: none;
      }

      .cls-2 {
        clip-path: url(#clip-path);
      }

      .cls-3 {
        fill: #fed947;
      }

      .cls-4 {
        clip-path: url(#clip-path-2);
      }

      .cls-5 {
        fill: url(#radial-gradient);
      }

      .cls-6 {
        fill: #ffe63d;
      }

      .cls-7 {
        fill: #fff;
      }

      .cls-8 {
        clip-path: url(#clip-path-4);
      }

      .cls-9 {
        fill: url(#linear-gradient);
      }

      .cls-10 {
        clip-path: url(#clip-path-5);
      }

      .cls-11 {
        fill: url(#linear-gradient-2);
      }

      .cls-12 {
        fill: #e5e5e5;
      }
    </style>
    <clipPath id="clip-path">
      <rect id="Rectangle_1456" data-name="Rectangle 1456" class="cls-1" width="56" height="38.52"/>
    </clipPath>
    <clipPath id="clip-path-2">
      <path id="Path_1160" data-name="Path 1160" class="cls-1" d="M6.6,21.8a15,15,0,1,0,15-15,15,15,0,0,0-15,15" transform="translate(-6.6 -6.8)"/>
    </clipPath>
    <radialGradient id="radial-gradient" cx="0.751" cy="0.504" r="0.5" gradientTransform="matrix(0.999, 0, 0, -1, 0, 2.111)" gradientUnits="objectBoundingBox">
      <stop offset="0" stop-color="#febf2d"/>
      <stop offset="1" stop-color="#fed947"/>
    </radialGradient>
    <clipPath id="clip-path-4">
      <path id="Path_1163" data-name="Path 1163" class="cls-1" d="M30.9,13.2a10.8,10.8,0,1,1-2.5,17.2l-1.1-1.3A11.3,11.3,0,1,0,31,13.2" transform="translate(-27.3 -11.62)"/>
    </clipPath>
    <linearGradient id="linear-gradient" x1="-1.236" y1="1.128" x2="-1.191" y2="1.128" gradientUnits="objectBoundingBox">
      <stop offset="0" stop-color="#e5e5e5"/>
      <stop offset="1" stop-color="#fff"/>
    </linearGradient>
    <clipPath id="clip-path-5">
      <path id="Path_1164" data-name="Path 1164" class="cls-1" d="M13.6,21.1a7.7,7.7,0,1,0,12.1-.4,7.4,7.4,0,1,1-11.8.1l.8-.9-1.1,1.2" transform="translate(-12.107 -19.9)"/>
    </clipPath>
    <linearGradient id="linear-gradient-2" x1="-0.649" y1="1.287" x2="-0.591" y2="1.287" xlink:href="#linear-gradient"/>
  </defs>
  <g id="sun-very-cloudy-c" transform="translate(28 19.26)">
    <g id="Group_1111" data-name="Group 1111" transform="translate(-28 -19.26)">
      <g id="Group_1105" data-name="Group 1105" class="cls-2">
        <path id="Path_1157" data-name="Path 1157" class="cls-3" d="M25.6.3l-.7,6-1.1-.2H22.7l.7-6Z"/>
        <path id="Path_1158" data-name="Path 1158" class="cls-3" d="M6,21l-6-.7.3-2.1,6,.7L6.1,20c0,.4-.1.7-.1,1.1"/>
        <path id="Path_1159" data-name="Path 1159" class="cls-3" d="M11.3,10.1,7.5,5.3,9.2,3.9,13,8.7,11.3,10"/>
      </g>
      <g id="Group_1106" data-name="Group 1106" class="cls-4" transform="translate(6.6 6.8)">
        <rect id="Rectangle_1457" data-name="Rectangle 1457" class="cls-5" width="30" height="29.96" transform="translate(0 0.1)"/>
      </g>
      <g id="Group_1107" data-name="Group 1107" class="cls-2">
        <path id="Path_1161" data-name="Path 1161" class="cls-6" d="M21.6,6.9h1a15,15,0,0,0,0,29.9h-1a15,15,0,1,1,0-30"/>
        <path id="Path_1162" data-name="Path 1162" class="cls-7" d="M25.8,19.2c.4-4.6,5.3-8.6,11.1-8.6A12.4,12.4,0,0,1,49,20.1a9.5,9.5,0,0,1,7,9c0,5.3-4.7,9.4-10.3,9.4H13.3a5.7,5.7,0,0,1-2-11,8.8,8.8,0,0,1,14.6-8.3"/>
      </g>
      <g id="Group_1108" data-name="Group 1108" class="cls-8" transform="translate(27.3 11.62)">
        <rect id="Rectangle_1459" data-name="Rectangle 1459" class="cls-9" width="22" height="24.38" transform="translate(-0.1 -0.62)"/>
      </g>
      <g id="Group_1109" data-name="Group 1109" class="cls-10" transform="translate(12.107 19.9)">
        <rect id="Rectangle_1460" data-name="Rectangle 1460" class="cls-11" width="17.1" height="14.48" transform="translate(-1.007 0)"/>
      </g>
      <g id="Group_1110" data-name="Group 1110" class="cls-2">
        <path id="Path_1165" data-name="Path 1165" class="cls-12" d="M17.7,17.1l2.2-.3a8.8,8.8,0,0,1,6,2.3v-.3c.6-4.4,5.4-8.2,11.1-8.2a12.4,12.4,0,0,1,12,9.5,9.5,9.5,0,0,1,7,9,8.8,8.8,0,0,1-1.1,4.2,8.8,8.8,0,0,0,.4-2.2,9.5,9.5,0,0,0-6.6-9.3A12.4,12.4,0,0,0,37.2,11.6c-5.5-.3-10.3,3-11.4,7.2v.8a8.8,8.8,0,0,0-6-2.6l-2.2.2"/>
      </g>
    </g>
  </g>
</svg>
