<svg xmlns="http://www.w3.org/2000/svg" xmlns:xlink="http://www.w3.org/1999/xlink" width="48.6" height="43.76" viewBox="0 0 48.6 43.76">
  <defs>
    <style>
      .cls-1 {
        fill: none;
      }

      .cls-2 {
        clip-path: url(#clip-path);
      }

      .cls-3 {
        fill: url(#radial-gradient);
      }

      .cls-4 {
        clip-path: url(#clip-path-2);
      }

      .cls-5 {
        fill: #fed947;
      }

      .cls-6 {
        fill: #ffe63d;
      }

      .cls-7 {
        fill: #fff;
      }

      .cls-8 {
        clip-path: url(#clip-path-3);
      }

      .cls-9 {
        fill: url(#linear-gradient);
      }

      .cls-10 {
        clip-path: url(#clip-path-4);
      }

      .cls-11 {
        fill: url(#linear-gradient-2);
      }

      .cls-12 {
        fill: #e5e5e5;
      }
    </style>
    <clipPath id="clip-path">
      <path id="Path_965" data-name="Path 965" class="cls-1" d="M6.9,21.9a15,15,0,1,0,15-15,15,15,0,0,0-15,15" transform="translate(-6.9 -6.9)"/>
    </clipPath>
    <radialGradient id="radial-gradient" cx="0.749" cy="0.503" r="0.5" gradientTransform="matrix(0.999, 0, 0, -1, 0, 2.461)" gradientUnits="objectBoundingBox">
      <stop offset="0" stop-color="#febf2d"/>
      <stop offset="1" stop-color="#fed947"/>
    </radialGradient>
    <clipPath id="clip-path-2">
      <rect id="Rectangle_1272" data-name="Rectangle 1272" class="cls-1" width="48.6" height="43.76"/>
    </clipPath>
    <clipPath id="clip-path-3">
      <path id="Path_972" data-name="Path 972" class="cls-1" d="M32.7,20.5a6.7,6.7,0,0,1,8.1,1.2,7.1,7.1,0,0,1,0,9.9,6.7,6.7,0,0,1-9.7,0l-.7-.9.9,1.2a7,7,0,0,0,10.1,0,7.5,7.5,0,0,0,0-10.4,7,7,0,0,0-8.8-1.1" transform="translate(-30.4 -19.324)"/>
    </clipPath>
    <linearGradient id="linear-gradient" x1="-2.187" y1="1.561" x2="-2.115" y2="1.561" gradientUnits="objectBoundingBox">
      <stop offset="0" stop-color="#e5e5e5"/>
      <stop offset="1" stop-color="#fff"/>
    </linearGradient>
    <clipPath id="clip-path-4">
      <path id="Path_973" data-name="Path 973" class="cls-1" d="M21.8,25.6a5.1,5.1,0,0,0,1.1,7,4.8,4.8,0,0,0,6.8-1.1,5.1,5.1,0,0,0-.2-6.1,4.9,4.9,0,0,1,.1,5.7A4.6,4.6,0,0,1,23,32a4.8,4.8,0,0,1-1-6.7l.5-.6-.7.8" transform="translate(-20.874 -24.7)"/>
    </clipPath>
    <linearGradient id="linear-gradient-2" x1="-1.87" y1="2.025" x2="-1.778" y2="2.025" xlink:href="#linear-gradient"/>
  </defs>
  <g id="sun-cloudy-c" transform="translate(24.3 21.88)">
    <g id="sun-cloudy-c-2" data-name="sun-cloudy-c" transform="translate(-24.3 -21.88)">
      <g id="Group_982" data-name="Group 982" class="cls-2" transform="translate(6.9 6.9)">
        <rect id="Rectangle_1271" data-name="Rectangle 1271" class="cls-3" width="30" height="29.96" transform="translate(0 0)"/>
      </g>
      <g id="Group_983" data-name="Group 983" class="cls-4">
        <path id="Path_966" data-name="Path 966" class="cls-5" d="M23,37.7v6.1H20.8V37.7H23M23,0V6.1H20.8V0Z"/>
        <path id="Path_967" data-name="Path 967" class="cls-5" d="M6.1,23H0V20.8H6.1V23"/>
        <path id="Path_968" data-name="Path 968" class="cls-5" d="M9.9,11.5,5.6,7.2,7.2,5.6l4.3,4.3L9.9,11.5"/>
        <path id="Path_969" data-name="Path 969" class="cls-5" d="M11.5,33.8,7.2,38.1,5.6,36.6l4.3-4.3,1.5,1.5M38.1,7.2l-4.3,4.3L32.3,9.9l4.3-4.3Z"/>
        <path id="Path_970" data-name="Path 970" class="cls-6" d="M21.9,6.9h1a15,15,0,0,0,0,29.9h-1a15,15,0,0,1,0-30"/>
        <path id="Path_971" data-name="Path 971" class="cls-7" d="M29.5,24.4c.3-3,3.3-5.5,7-5.5A7.9,7.9,0,0,1,44.1,25a6.2,6.2,0,0,1,4.4,5.8A6.3,6.3,0,0,1,42,36.9H21.6A3.6,3.6,0,0,1,18,33.2a3.7,3.7,0,0,1,2.3-3.4,5.9,5.9,0,0,1-.1-1.2,5.6,5.6,0,0,1,5.6-5.7,5.5,5.5,0,0,1,3.8,1.5"/>
      </g>
      <g id="Group_984" data-name="Group 984" class="cls-8" transform="translate(30.4 19.324)">
        <rect id="Rectangle_1273" data-name="Rectangle 1273" class="cls-9" width="13.9" height="15.78" transform="translate(0 -0.224)"/>
      </g>
      <g id="Group_985" data-name="Group 985" class="cls-10" transform="translate(20.874 24.7)">
        <rect id="Rectangle_1274" data-name="Rectangle 1274" class="cls-11" width="10.8" height="9.37" transform="translate(-0.674 0.1)"/>
      </g>
      <g id="Group_986" data-name="Group 986" class="cls-4">
        <path id="Path_974" data-name="Path 974" class="cls-12" d="M24.3,23l1.4-.2a5.5,5.5,0,0,1,3.8,1.5v-.2c.4-2.9,3.4-5.3,7-5.3A7.9,7.9,0,0,1,44.1,25a6.2,6.2,0,0,1,4.4,5.8,5.8,5.8,0,0,1-.7,2.7,5.9,5.9,0,0,0,.3-1.5A6.2,6.2,0,0,0,44,26a7.9,7.9,0,0,0-7.3-6.6c-3.5-.2-6.5,1.9-7.2,4.7v.5a5.5,5.5,0,0,0-3.7-1.7H24.3"/>
      </g>
    </g>
  </g>
</svg>
