<?xml version="1.0" encoding="utf-8"?>
<!-- Generator: Adobe Illustrator 25.0.0, SVG Export Plug-In . SVG Version: 6.00 Build 0)  -->
<svg version="1.1" id="Layer_1" xmlns="http://www.w3.org/2000/svg" xmlns:xlink="http://www.w3.org/1999/xlink" x="0px" y="0px"
	 viewBox="0 0 15.9 25.5" style="enable-background:new 0 0 15.9 25.5;" xml:space="preserve">
<style type="text/css">
	.st0{fill:#FFFFFF;}
</style>
<path class="st0" d="M8.5,23.2c-3.6,0-6.5-2.9-6.5-6.5C2,13.5,6.7,5.3,8.5,2.3c0,0,2,3.4,3.5,6.3c1.5,2.8,3,6.3,3,8.1
	C15,20.3,12.1,23.2,8.5,23.2z M8.5,22c2.9,0,5.3-2.4,5.3-5.3c0-2.5-3.8-9.3-5.3-11.9C7,7.3,3.2,14.2,3.2,16.7
	C3.2,19.6,5.6,22,8.5,22z"/>
<path class="st0" d="M10.2,14.9c0.1-0.2,0.2-0.4,0.3-0.6c0.1,0.3,0.2,0.6,0.4,0.8c0.2,0.5,0.4,1.1,0.6,1.5c0.1,0.2,0.1,0.4,0.2,0.5
	c0,0.1,0,0.2,0,0.2c0,0.6-0.5,1.1-1.1,1.1s-1.1-0.5-1.1-1.1C9.5,16.6,9.9,15.7,10.2,14.9z"/>
</svg>
