<svg id="logo" xmlns="http://www.w3.org/2000/svg" xmlns:xlink="http://www.w3.org/1999/xlink" width="224.3" height="159.482" viewBox="0 0 224.3 159.482">
  <defs>
    <linearGradient id="linear-gradient" y1="0.5" x2="1" y2="0.5" gradientUnits="objectBoundingBox">
      <stop offset="0" stop-color="#7b61e2"/>
      <stop offset="0.522" stop-color="#b10fda"/>
      <stop offset="1" stop-color="#e91ee9"/>
    </linearGradient>
  </defs>
  <path id="Path_5" data-name="Path 5" d="M224.09,89.234c0-21.883-22.325-42.683-44.947-48.623-3.112-18.165-15.077-29.791-36.561-29.791a46.261,46.261,0,0,0-27.466,8.78C106.4,7.805,91.313,0,74.153,0,47.177,0,25.312,19.286,25.312,43.07a38.408,38.408,0,0,0,2.041,12.352C11.173,62.507.05,77.221.05,94.23c0,23.058,20.436,41.9,46.2,43.234v.073H174.335v-.2C202.261,135.1,224.09,114.442,224.09,89.234Z" transform="translate(-0.02 0)" fill="#fff"/>
  <path id="Path_6" data-name="Path 6" d="M179.837,40.757l-31.142,74.9H134.163l1.211-47.478L117,115.653H102.471V79.262l14.448-33.3L115.1,88.266l18.977-47.472h14.532l-1.817,47.472,26.382-63.482c-6.055-8.81-16.155-13.963-30.482-13.963a46.358,46.358,0,0,0-27.5,8.78C106.473,7.805,91.366,0,74.187,0c-27.006,0-48.9,19.286-48.9,43.07a38.408,38.408,0,0,0,2.041,12.352C11.135,62.507,0,77.221,0,94.23c0,17.79,12.219,33.109,29.67,39.758L69.446,40.739H83.979L82.162,88.211l18.959-47.448h14.193l-8.035,19.982V60.46L84.106,115.653H69.573l1.211-47.478L41.429,137c1.586.218,3.2.375,4.844.46v.073H174.491v-.2c27.926-2.24,49.809-22.919,49.809-48.1C224.3,67.521,202.278,46.873,179.837,40.757Z" transform="translate(0 0)" fill="url(#linear-gradient)"/>
  <path id="Path_7" data-name="Path 7" d="M74.847,252.313H72.159L67.03,240.566,65,252.313H62.21l2.852-16.4h2.695l5.123,11.8,2.047-11.8H77.7Z" transform="translate(-24.541 -93.064)" fill="#7b20d3"/>
  <path id="Path_8" data-name="Path 8" d="M95.613,254.916a3.7,3.7,0,0,1-.115-1.138,4.511,4.511,0,0,1-3.252,1.362,3.754,3.754,0,0,1-2.634-1.023,3.124,3.124,0,0,1-.969-2.525,3.724,3.724,0,0,1,1.665-3.028,7.266,7.266,0,0,1,4.239-1.1h1.738l.157-.836a2.683,2.683,0,0,0,0-.823,1.471,1.471,0,0,0-1.611-1.247,2.422,2.422,0,0,0-1.508.436,1.871,1.871,0,0,0-.793,1.211H89.86a3.318,3.318,0,0,1,.811-1.919,4.674,4.674,0,0,1,1.913-1.326,6.412,6.412,0,0,1,2.519-.448,4.269,4.269,0,0,1,3.112,1.211,3.554,3.554,0,0,1,.92,2.991l-.932,5.71-.091,1.011a3.634,3.634,0,0,0,.17,1.3v.206Zm-2.749-1.962a3.027,3.027,0,0,0,1.568-.388,4.136,4.136,0,0,0,1.211-1.066l.418-2.307H94.789a4.451,4.451,0,0,0-2.422.569,2.065,2.065,0,0,0-1.023,1.556,1.381,1.381,0,0,0,.333,1.211,1.641,1.641,0,0,0,1.187.43Z" transform="translate(-34.965 -95.666)" fill="#7b20d3"/>
  <path id="Path_9" data-name="Path 9" d="M112.974,242.719l-.266,1.429a4.638,4.638,0,0,1,3.633-1.641,2.931,2.931,0,0,1,2.531,1.211,4.844,4.844,0,0,1,.606,3.312l-1.32,7.872h-2.67l1.332-7.908a4.529,4.529,0,0,0,0-.9,1.441,1.441,0,0,0-1.6-1.375,3.246,3.246,0,0,0-2.664,1.5l-1.556,8.7H108.33l2.1-12.189Z" transform="translate(-42.735 -95.664)" fill="#7b20d3"/>
  <path id="Path_10" data-name="Path 10" d="M130.125,248.78a8.011,8.011,0,0,1,1.054-3.258,6.267,6.267,0,0,1,2.216-2.265,5.45,5.45,0,0,1,2.991-.751,4.505,4.505,0,0,1,4.366,3.028,7.042,7.042,0,0,1,.369,3.13,8.169,8.169,0,0,1-1.054,3.421,6.176,6.176,0,0,1-2.234,2.283,5.5,5.5,0,0,1-3.028.751,4.523,4.523,0,0,1-4.348-3.028,7.006,7.006,0,0,1-.382-3.094Zm2.628,1.544a3.191,3.191,0,0,0,.605,1.9,2,2,0,0,0,1.58.751,2.816,2.816,0,0,0,2.343-1.084,5.583,5.583,0,0,0,1.163-2.985l.067-1.1a3.857,3.857,0,0,0-.575-2.265,2,2,0,0,0-1.665-.866,2.913,2.913,0,0,0-2.7,1.677,6.194,6.194,0,0,0-.757,2.422,9.311,9.311,0,0,0-.061,1.556Z" transform="translate(-51.299 -95.664)" fill="#7b20d3"/>
  <path id="Path_11" data-name="Path 11" d="M174.446,248.238l4.366-12.322h2.828l-6.255,16.4h-2.658l-1.138-11.941-4.953,11.941h-2.682l-1.1-16.4h2.688l.539,12.268,4.947-12.268h2.331Z" transform="translate(-64.242 -93.064)" fill="#7b20d3"/>
  <path id="Path_12" data-name="Path 12" d="M197.788,255.145a5.135,5.135,0,0,1-2.755-.8,4.62,4.62,0,0,1-1.726-2.1,6.261,6.261,0,0,1-.418-2.961l.03-.466a8.162,8.162,0,0,1,1.09-3.336,6.164,6.164,0,0,1,2.2-2.246,5.322,5.322,0,0,1,2.864-.733,3.978,3.978,0,0,1,3.427,1.7,6.261,6.261,0,0,1,.866,4.323l-.157,1.169h-7.684a3.312,3.312,0,0,0,.606,2.337,2.3,2.3,0,0,0,1.889.908,4.112,4.112,0,0,0,3.179-1.5l1.35,1.417a5.2,5.2,0,0,1-2.016,1.7A6.055,6.055,0,0,1,197.788,255.145Zm1.138-10.451q-2.119-.073-3.179,2.991H200.8l.048-.236a3.778,3.778,0,0,0,0-1.011,2.125,2.125,0,0,0-.605-1.266,2,2,0,0,0-1.332-.478Z" transform="translate(-76.08 -95.665)" fill="#7b20d3"/>
  <path id="Path_13" data-name="Path 13" d="M219.293,254.88a3.7,3.7,0,0,1-.115-1.138,4.511,4.511,0,0,1-3.252,1.362,3.754,3.754,0,0,1-2.634-1.023,3.124,3.124,0,0,1-.969-2.525,3.724,3.724,0,0,1,1.665-3.028,7.266,7.266,0,0,1,4.239-1.1h1.738l.157-.836a2.682,2.682,0,0,0,0-.823,1.471,1.471,0,0,0-1.611-1.247,2.422,2.422,0,0,0-1.508.436,1.871,1.871,0,0,0-.793,1.211h-2.67a3.348,3.348,0,0,1,.8-1.974,4.741,4.741,0,0,1,1.919-1.326,6.412,6.412,0,0,1,2.519-.448,4.269,4.269,0,0,1,3.112,1.211,3.554,3.554,0,0,1,.92,2.991l-.932,5.71-.091,1.011a3.632,3.632,0,0,0,.17,1.3v.206Zm-2.749-1.962a3.027,3.027,0,0,0,1.568-.388,4.136,4.136,0,0,0,1.211-1.066l.418-2.307h-1.272a4.45,4.45,0,0,0-2.422.569,2.065,2.065,0,0,0-1.023,1.556,1.381,1.381,0,0,0,.333,1.211,1.641,1.641,0,0,0,1.187.43Z" transform="translate(-83.755 -95.63)" fill="#7b20d3"/>
  <path id="Path_14" data-name="Path 14" d="M238.366,238l-.521,2.961h2.083l-.345,2.028h-2.1l-1.15,6.824a2.422,2.422,0,0,0,0,.509c.048.484.345.739.9.763a4.668,4.668,0,0,0,.945-.1L238,253.126a6.1,6.1,0,0,1-1.677.236,2.5,2.5,0,0,1-2.089-.951,3.469,3.469,0,0,1-.545-2.464l1.138-6.957h-1.95l.363-2.028h1.938L235.7,238Z" transform="translate(-91.868 -93.888)" fill="#7b20d3"/>
  <path id="Path_15" data-name="Path 15" d="M248.928,240.881a4.493,4.493,0,0,1,3.457-1.55,2.979,2.979,0,0,1,2.573,1.211,4.917,4.917,0,0,1,.605,3.336l-1.29,7.847H251.6l1.332-7.872a4.5,4.5,0,0,0,0-.9,1.459,1.459,0,0,0-1.617-1.411,3.294,3.294,0,0,0-2.658,1.465l-1.508,8.713H244.49l2.991-17.306h2.682Z" transform="translate(-96.448 -92.476)" fill="#7b20d3"/>
  <path id="Path_16" data-name="Path 16" d="M271.159,255.145a5.147,5.147,0,0,1-2.755-.8,4.572,4.572,0,0,1-1.7-2.095,6.182,6.182,0,0,1-.424-2.961l.03-.466a8.253,8.253,0,0,1,1.09-3.336,6.134,6.134,0,0,1,2.2-2.246,5.292,5.292,0,0,1,2.858-.733,3.972,3.972,0,0,1,3.427,1.7,6.261,6.261,0,0,1,.866,4.323L276.6,249.7h-7.69a3.312,3.312,0,0,0,.606,2.337,2.3,2.3,0,0,0,1.889.908,4.112,4.112,0,0,0,3.179-1.5l1.35,1.417a5.1,5.1,0,0,1-2.016,1.7A6.055,6.055,0,0,1,271.159,255.145Zm1.138-10.451q-2.119-.073-3.179,2.991h5.062l.042-.236a3.544,3.544,0,0,0,0-1.011,2.125,2.125,0,0,0-.606-1.266,2,2,0,0,0-1.32-.478Z" transform="translate(-105.031 -95.665)" fill="#7b20d3"/>
  <path id="Path_17" data-name="Path 17" d="M293.235,245.217a4.7,4.7,0,0,0-1.048-.115,3.124,3.124,0,0,0-2.791,1.453l-1.465,8.35h-2.67l2.107-12.189H289.9l-.266,1.387a3.482,3.482,0,0,1,2.882-1.623,4.24,4.24,0,0,1,1.023.17Z" transform="translate(-112.531 -95.655)" fill="#7b20d3"/>
</svg>
