<svg xmlns="http://www.w3.org/2000/svg" xmlns:xlink="http://www.w3.org/1999/xlink" width="48.4" height="43.48" viewBox="0 0 48.4 43.48">
  <defs>
    <style>
      .cls-1 {
        fill: none;
      }

      .cls-2 {
        clip-path: url(#clip-path);
      }

      .cls-3 {
        fill: #fff;
      }
    </style>
    <clipPath id="clip-path">
      <rect id="Rectangle_1194" data-name="Rectangle 1194" class="cls-1" width="48.4" height="43.48"/>
    </clipPath>
  </defs>
  <g id="ice-rain" transform="translate(24.2 21.74)">
    <g id="ice-rain-2" data-name="ice-rain" class="cls-2" transform="translate(-24.2 -21.74)">
      <path id="Path_888" data-name="Path 888" class="cls-3" d="M18.2,8.6C18.6,4,23.5,0,29.3,0A12.4,12.4,0,0,1,41.4,9.5a9.5,9.5,0,0,1,7,9c0,5.3-4.7,9.4-10.3,9.4H26.7L33,34.2l-1.5,1.5-9.9-9.9H38.2c4.6,0,8.1-3.3,8.1-7.3s-3.2-6.4-6.7-7.2c-.9-5.2-4.7-9.1-10.2-9.1s-9.2,3.9-10.2,9H17.7a6.7,6.7,0,0,0-5.5-2.8A6.6,6.6,0,0,0,5.6,15a9.6,9.6,0,0,0,.9,3.5c-2.1.3-4.3,1-4.3,3.7a3.5,3.5,0,0,0,3.5,3.5h8.7v2.2H5.7a5.7,5.7,0,0,1-2-11A8.8,8.8,0,0,1,18.2,8.6" transform="translate(0 0)"/>
      <rect id="Rectangle_1186" data-name="Rectangle 1186" class="cls-3" width="2.1" height="2.11" transform="translate(14.1 32.3)"/>
      <rect id="Rectangle_1187" data-name="Rectangle 1187" class="cls-3" width="2.1" height="2.11" transform="translate(16.1 38.8)"/>
      <rect id="Rectangle_1188" data-name="Rectangle 1188" class="cls-3" width="2.1" height="2.11" transform="translate(21.6 33.1)"/>
      <rect id="Rectangle_1189" data-name="Rectangle 1189" class="cls-3" width="2.1" height="2.11" transform="translate(24 41.4)"/>
      <rect id="Rectangle_1190" data-name="Rectangle 1190" class="cls-3" width="2.1" height="2.11" transform="translate(31.3 40.1)"/>
      <rect id="Rectangle_1191" data-name="Rectangle 1191" class="cls-3" width="2.1" height="2.11" transform="translate(34.2 30.7)"/>
      <rect id="Rectangle_1192" data-name="Rectangle 1192" class="cls-3" width="2.1" height="2.11" transform="translate(41.2 32.8)"/>
      <rect id="Rectangle_1193" data-name="Rectangle 1193" class="cls-3" width="2.1" height="2.11" transform="translate(38.7 40.2)"/>
    </g>
  </g>
</svg>
