<svg xmlns="http://www.w3.org/2000/svg" xmlns:xlink="http://www.w3.org/1999/xlink" width="43.8" height="43.76" viewBox="0 0 43.8 43.76">
  <defs>
    <style>
      .cls-1 {
        fill: none;
      }

      .cls-2 {
        clip-path: url(#clip-path);
      }

      .cls-3 {
        fill: url(#radial-gradient);
      }

      .cls-4 {
        clip-path: url(#clip-path-2);
      }

      .cls-5 {
        fill: #fed947;
      }

      .cls-6 {
        fill: #ffe63d;
      }
    </style>
    <clipPath id="clip-path">
      <path id="Path_977" data-name="Path 977" class="cls-1" d="M6.9,21.9a15,15,0,1,0,15-15,15,15,0,0,0-15,15" transform="translate(-6.9 -6.9)"/>
    </clipPath>
    <radialGradient id="radial-gradient" cx="0.749" cy="0.503" r="0.5" gradientTransform="matrix(0.999, 0, 0, -1, 0, 2.461)" gradientUnits="objectBoundingBox">
      <stop offset="0" stop-color="#febf2d"/>
      <stop offset="1" stop-color="#fed947"/>
    </radialGradient>
    <clipPath id="clip-path-2">
      <rect id="Rectangle_1278" data-name="Rectangle 1278" class="cls-1" width="43.8" height="43.76"/>
    </clipPath>
  </defs>
  <g id="sun-c" transform="translate(21.9 21.88)">
    <g id="sun-c-2" data-name="sun-c" transform="translate(-21.9 -21.88)">
      <g id="Group_987" data-name="Group 987" class="cls-2" transform="translate(6.9 6.9)">
        <rect id="Rectangle_1277" data-name="Rectangle 1277" class="cls-3" width="30" height="29.96" transform="translate(0 0)"/>
      </g>
      <g id="Group_988" data-name="Group 988" class="cls-4">
        <path id="Path_978" data-name="Path 978" class="cls-5" d="M23,37.7v6.1H20.8V37.7H23M23,0V6.1H20.8V0Z"/>
        <path id="Path_979" data-name="Path 979" class="cls-5" d="M6.1,23H0V20.8H6.1V23m37.7,0H37.7V20.8h6.1Z"/>
        <path id="Path_980" data-name="Path 980" class="cls-5" d="M9.9,11.5,5.6,7.2,7.2,5.6l4.3,4.3L9.9,11.5M36.6,38.1l-4.3-4.3,1.5-1.5,4.3,4.3Z"/>
        <path id="Path_981" data-name="Path 981" class="cls-5" d="M11.5,33.8,7.2,38.1,5.6,36.6l4.3-4.3,1.5,1.5M38.1,7.2l-4.3,4.3L32.3,9.9l4.3-4.3Z"/>
        <path id="Path_982" data-name="Path 982" class="cls-6" d="M21.9,6.9h1a15,15,0,0,0,0,29.9h-1a15,15,0,0,1,0-30"/>
      </g>
    </g>
  </g>
</svg>
