<svg xmlns="http://www.w3.org/2000/svg" xmlns:xlink="http://www.w3.org/1999/xlink" width="35.5" height="31.08" viewBox="0 0 35.5 31.08">
  <defs>
    <style>
      .cls-1 {
        fill: none;
      }

      .cls-2 {
        clip-path: url(#clip-path);
      }

      .cls-3 {
        fill: url(#linear-gradient);
      }

      .cls-4 {
        clip-path: url(#clip-path-2);
      }

      .cls-5 {
        fill: url(#linear-gradient-2);
      }

      .cls-6 {
        clip-path: url(#clip-path-3);
      }

      .cls-7 {
        fill: #d9f1f6;
      }

      .cls-8 {
        fill: #fff;
      }
    </style>
    <clipPath id="clip-path">
      <path id="Path_941" data-name="Path 941" class="cls-1" d="M25.7,0C23,4.4,16,16.6,16,21.3a9.75,9.75,0,0,0,19.5,0c0-2.7-2.3-7.8-4.4-11.9S25.7,0,25.7,0Z" transform="translate(-16)"/>
    </clipPath>
    <linearGradient id="linear-gradient" x1="-0.821" y1="1" x2="-0.769" y2="1" gradientUnits="objectBoundingBox">
      <stop offset="0" stop-color="#8dd4e5"/>
      <stop offset="1" stop-color="#fff"/>
    </linearGradient>
    <clipPath id="clip-path-2">
      <path id="Path_942" data-name="Path 942" class="cls-1" d="M6.5,0C4.8,3,0,11.2,0,14.4a6.55,6.55,0,1,0,13.1,0c0-1.8-1.6-5.3-3-8.1S6.5,0,6.5,0Z"/>
    </clipPath>
    <linearGradient id="linear-gradient-2" x1="0" y1="1.488" x2="0.076" y2="1.488" xlink:href="#linear-gradient"/>
    <clipPath id="clip-path-3">
      <rect id="Rectangle_1260" data-name="Rectangle 1260" class="cls-1" width="35.4" height="31.08"/>
    </clipPath>
  </defs>
  <g id="wet-c" transform="translate(17.75 15.54)">
    <g id="wet-c-2" data-name="wet-c" transform="translate(-17.75 -15.54)">
      <g id="Group_970" data-name="Group 970" class="cls-2" transform="translate(16)">
        <rect id="Rectangle_1258" data-name="Rectangle 1258" class="cls-3" width="19.5" height="31.08"/>
      </g>
      <g id="Group_971" data-name="Group 971" class="cls-4">
        <rect id="Rectangle_1259" data-name="Rectangle 1259" class="cls-5" width="13.1" height="20.89"/>
      </g>
      <g id="Group_972" data-name="Group 972" class="cls-6">
        <path id="Path_943" data-name="Path 943" class="cls-7" d="M25.7,28.9a7.6,7.6,0,0,0,7.6-7.6c0-3.5-5.4-13.4-7.6-17.1C23.6,8,18.1,17.8,18.1,21.3a7.6,7.6,0,0,0,7.6,7.6"/>
        <path id="Path_944" data-name="Path 944" class="cls-8" d="M22.1,21.1v.3a2.1,2.1,0,1,0,4.1,0,25.358,25.358,0,0,0-2.1-5.3,25.7,25.7,0,0,0-2,5.1"/>
        <path id="Path_945" data-name="Path 945" class="cls-7" d="M6.5,19.6a5.3,5.3,0,0,0,5.3-5.3C11.8,11.9,8,5,6.5,2.4,5,5,1.2,11.9,1.2,14.4a5.3,5.3,0,0,0,5.3,5.3"/>
        <path id="Path_946" data-name="Path 946" class="cls-8" d="M8.2,12.6l.3-.6.4.9.6,1.5.2.5v.2a1.15,1.15,0,1,1-2.3,0,15.8,15.8,0,0,1,.9-2.5"/>
      </g>
    </g>
  </g>
</svg>
