<svg xmlns="http://www.w3.org/2000/svg" xmlns:xlink="http://www.w3.org/1999/xlink" width="29.073" height="25.525" viewBox="0 0 29.073 25.525">
  <defs>
    <style>
      .cls-1 {
        fill: none;
      }

      .cls-2 {
        clip-path: url(#clip-path);
      }

      .cls-3 {
        fill: #fff;
      }
    </style>
    <clipPath id="clip-path">
      <rect id="Rectangle_301" data-name="Rectangle 301" class="cls-1" width="29.073" height="25.525"/>
    </clipPath>
  </defs>
  <g id="wet" transform="translate(4)">
    <g id="drop" class="cls-2" transform="translate(-4)">
      <path id="Path_366" data-name="Path 366" class="cls-3" d="M23.966,25.542A7.966,7.966,0,0,1,16,17.493C16,13.633,21.749,3.614,23.966,0c0,0,2.546,4.271,4.353,7.72s3.614,7.556,3.614,9.773a7.966,7.966,0,0,1-7.966,7.966m0-1.807a6.242,6.242,0,0,0,6.242-6.242c0-2.874-4.435-11.005-6.242-14.044-1.725,3.2-6.242,11.251-6.242,14.126a6.242,6.242,0,0,0,6.242,6.242" transform="translate(-2.86)"/>
      <path id="Path_367" data-name="Path 367" class="cls-3" d="M22.091,20.206v.246a1.725,1.725,0,1,0,3.367,0A20.826,20.826,0,0,0,23.734,16.1a21.107,21.107,0,0,0-1.643,4.188" transform="translate(-3.941 -2.878)"/>
    </g>
  </g>
</svg>
